<?xml version="1.0" encoding="iso-8859-1"?>
<!-- Generator: Adobe Illustrator 19.0.0, SVG Export Plug-In . SVG Version: 6.00 Build 0)  -->
<svg version="1.1" id="Capa_1" xmlns="http://www.w3.org/2000/svg" xmlns:xlink="http://www.w3.org/1999/xlink" x="0px" y="0px"
     viewBox="0 0 512 512" style="enable-background:new 0 0 512 512;" xml:space="preserve">
<circle style="fill:#FF432E;" cx="256" cy="256" r="256"/>
    <path style="fill:#DB0404;" d="M512,256c0-6.188-0.232-12.322-0.664-18.4L366.245,92.508l-220.49,326.984l91.844,91.844
	c6.078,0.432,12.212,0.664,18.4,0.664C397.385,512,512,397.385,512,256z"/>
    <rect x="145.76" y="92.51" style="fill:#FFFFFF;" width="220.49" height="326.98"/>
    <rect x="255.56" y="92.51" style="fill:#F0F0F0;" width="110.69" height="326.98"/>
    <circle style="fill:#EBE1DC;" cx="256" cy="307" r="79.5"/>
    <path style="fill:#CEC8C4;" d="M256,227.499c-0.149,0-0.296,0.01-0.444,0.011v158.97c0.149,0,0.295,0.011,0.444,0.011
	c43.904,0,79.496-35.592,79.496-79.496C335.496,263.09,299.904,227.499,256,227.499z"/>
    <polygon style="fill:#5A5555;" points="230.75,257.124 301.25,304.499 230.75,351.875 "/>
    <polygon style="fill:#464141;" points="255.556,273.793 255.556,335.206 301.25,304.5 "/>
    <rect x="167.5" y="110" style="fill:#00EDFF;" width="177" height="103"/>
    <rect x="255.56" y="110" style="fill:#00C9FF;" width="88.94" height="103"/>
    <g>
                        </g>
    <g>
                        </g>
    <g>
                        </g>
    <g>
                        </g>
    <g>
                        </g>
    <g>
                        </g>
    <g>
                        </g>
    <g>
                        </g>
    <g>
                        </g>
    <g>
                        </g>
    <g>
                        </g>
    <g>
                        </g>
    <g>
                        </g>
    <g>
                        </g>
    <g>
                        </g>
</svg>
