<?xml version="1.0" encoding="iso-8859-1"?>
<!-- Generator: Adobe Illustrator 19.0.0, SVG Export Plug-In . SVG Version: 6.00 Build 0)  -->
<svg version="1.1" id="Capa_1" xmlns="http://www.w3.org/2000/svg" xmlns:xlink="http://www.w3.org/1999/xlink" x="0px" y="0px"
     viewBox="0 0 512 512" style="enable-background:new 0 0 512 512;" xml:space="preserve">
<circle style="fill:#FFE000;" cx="256" cy="256" r="256"/>
    <path style="fill:#FFC200;" d="M512,256c0-10.588-0.656-21.022-1.905-31.273l-81.762-81.762L408.7,169.201L363.5,124L87.333,383.036
	L212.62,508.322C226.722,510.73,241.212,512,256,512C397.385,512,512,397.385,512,256z"/>
    <rect x="87.33" y="142.96" style="fill:#FF6C52;" width="185.67" height="240.07"/>
    <g>
                            <rect x="87.33" y="255.67" style="fill:#FF583E;" width="185.67" height="127.37"/>
        <rect x="87.33" y="142.96" style="fill:#FF583E;" width="16.71" height="240.07"/>
                        </g>
    <rect x="87.33" y="255.67" style="fill:#FF432E;" width="16.71" height="127.37"/>
    <rect x="242.67" y="142.96" style="fill:#7C00FF;" width="185.67" height="240.07"/>
    <rect x="242.67" y="255.67" style="fill:#5806C1;" width="185.67" height="127.37"/>
    <rect id="SVGCleanerId_0" x="148.5" y="124" style="fill:#FF432E;" width="215" height="278"/>
    <g>
                            <rect id="SVGCleanerId_0_1_" x="148.5" y="124" style="fill:#FF432E;" width="215" height="278"/>
                        </g>
    <g>
                            <rect x="148.5" y="255.67" style="fill:#DB0404;" width="215" height="146.33"/>
        <rect x="138.5" y="124" style="fill:#DB0404;" width="23.17" height="278"/>
                        </g>
    <rect x="138.5" y="255.67" style="fill:#C10000;" width="23.17" height="146.33"/>
    <path style="fill:#7C00FF;" d="M227.351,169.567v3.265v11.449v45.684c-2.107-0.543-4.357-0.841-6.699-0.841
	c-11.721,0-21.222,7.359-21.222,16.438S208.932,262,220.653,262s21.222-7.359,21.222-16.438v-65.49l45.935-13.311v46.317
	c-2.106-0.543-4.357-0.841-6.699-0.841c-11.721,0-21.222,7.359-21.222,16.438c0,9.078,9.502,16.438,21.222,16.438
	s21.222-7.359,21.222-16.438v-66.122v-6.608v-8.106L227.351,169.567z"/>
    <path style="fill:#4D20BC;" d="M255.556,161.394v14.714l32.254-9.347v46.317c-2.107-0.543-4.357-0.841-6.699-0.841
	c-11.721,0-21.222,7.359-21.222,16.438c0,9.078,9.502,16.438,21.222,16.438s21.222-7.359,21.222-16.438v-66.122v-6.608v-8.106
	L255.556,161.394z"/>
    <rect x="181.67" y="299.67" style="fill:#FFFFFF;" width="101.33" height="17.725"/>
    <rect x="255.56" y="299.67" style="fill:#F0F0F0;" width="27.444" height="17.725"/>
    <rect x="181.67" y="357.27" style="fill:#FFFFFF;" width="101.33" height="17.725"/>
    <rect x="255.56" y="357.27" style="fill:#F0F0F0;" width="27.444" height="17.726"/>
    <rect x="181.67" y="328.47" style="fill:#FFFFFF;" width="59.81" height="17.725"/>
    <g>
                        </g>
    <g>
                        </g>
    <g>
                        </g>
    <g>
                        </g>
    <g>
                        </g>
    <g>
                        </g>
    <g>
                        </g>
    <g>
                        </g>
    <g>
                        </g>
    <g>
                        </g>
    <g>
                        </g>
    <g>
                        </g>
    <g>
                        </g>
    <g>
                        </g>
    <g>
                        </g>
</svg>