<?xml version="1.0" encoding="iso-8859-1"?>
<!-- Generator: Adobe Illustrator 19.0.0, SVG Export Plug-In . SVG Version: 6.00 Build 0)  -->
<svg version="1.1" id="Capa_1" xmlns="http://www.w3.org/2000/svg" xmlns:xlink="http://www.w3.org/1999/xlink" x="0px" y="0px"
     viewBox="0 0 512 512" style="enable-background:new 0 0 512 512;" xml:space="preserve">
<circle style="fill:#FF432E;" cx="256" cy="256" r="256"/>
    <path style="fill:#DB0404;" d="M512,256c0-5.999-0.223-11.945-0.629-17.841L393.529,120.317l-80.777,88.258l64.822,64.822
	l-0.573,5.496L199.248,101.139l-78.914,100.004L98.752,458.015h0.001C142.147,491.841,196.717,512,256,512
	C397.385,512,512,397.385,512,256z"/>
    <path style="fill:#FFE000;" d="M98.752,458.015c6.917,5.392,14.122,10.429,21.581,15.1V323.128H98.752V458.015z"/>
    <path style="fill:#FFC200;" d="M391.667,473.114c7.459-4.67,14.664-9.708,21.581-15.1V323.128h-21.581V473.114z"/>
    <path style="fill:#00EDFF;" d="M222.273,268.631v86.571c-3.019-0.778-6.245-1.205-9.602-1.205c-16.8,0-30.419,10.548-30.419,23.56
	s13.619,23.56,30.419,23.56s30.419-10.548,30.419-23.56v-93.868l65.84-19.08v66.387c-3.019-0.778-6.245-1.205-9.602-1.205
	c-16.8,0-30.419,10.548-30.419,23.56s13.619,23.56,30.419,23.56c16.8,0,30.419-10.548,30.419-23.56V237.487L222.273,268.631z"/>
    <path style="fill:#00C9FF;" d="M273.333,253.835v21.09l35.597-10.315v66.387c-3.019-0.778-6.245-1.205-9.602-1.205
	c-16.8,0-30.419,10.548-30.419,23.56s13.619,23.56,30.419,23.56c16.8,0,30.419-10.548,30.419-23.56V237.487L273.333,253.835z"/>
    <path style="fill:#FFFFFF;" d="M165.052,208.575h34.196V101.139h-34.106c-36.666,0-66.389,29.724-66.389,66.389v155.6h31.499
	v-79.752C130.251,224.156,145.832,208.575,165.052,208.575z"/>
    <path style="fill:#F0F0F0;" d="M346.948,208.575h-34.196V101.139h34.106c36.666,0,66.389,29.724,66.389,66.389v155.6h-31.499
	v-79.752C381.749,224.156,366.168,208.575,346.948,208.575z"/>
    <g>
                        </g>
    <g>
                        </g>
    <g>
                        </g>
    <g>
                        </g>
    <g>
                        </g>
    <g>
                        </g>
    <g>
                        </g>
    <g>
                        </g>
    <g>
                        </g>
    <g>
                        </g>
    <g>
                        </g>
    <g>
                        </g>
    <g>
                        </g>
    <g>
                        </g>
    <g>
                        </g>
</svg>
